<svg width="1274" height="1221" viewBox="0 0 1274 1221" fill="none" xmlns="http://www.w3.org/2000/svg">
<path d="M1079.5 389C1186.92 389 1274 301.919 1274 194.5C1274 87.0806 1186.92 0 1079.5 0C972.081 0 885 87.0806 885 194.5C885 301.919 972.081 389 1079.5 389Z" fill="#1ED760"/>
<path d="M0.835528 991.219C1.29684 1117.44 103.995 1219.39 230.219 1218.93C356.443 1218.47 458.394 1115.77 457.932 989.549C457.471 863.325 354.773 761.374 228.549 761.836C102.325 762.297 0.374213 864.995 0.835528 991.219Z" fill="#1ED760"/>
<path d="M398.714 974.445C398.85 1011.65 429.119 1041.7 466.322 1041.56C503.525 1041.42 533.574 1011.16 533.438 973.953C533.302 936.75 503.033 906.701 465.83 906.837C428.627 906.973 398.578 937.242 398.714 974.445Z" fill="#1ED760"/>
<mask id="mask0" mask-type="alpha" maskUnits="userSpaceOnUse" x="0" y="761" width="459" height="460">
<path d="M0.835528 991.495C1.29684 1117.72 103.995 1219.67 230.219 1219.21C356.443 1218.75 458.394 1116.05 457.932 989.825C457.471 863.601 354.773 761.65 228.549 762.112C102.325 762.573 0.374213 865.272 0.835528 991.495Z" fill="#1ED760"/>
</mask>
<g mask="url(#mask0)">
<path d="M398.714 974.445C398.85 1011.65 429.119 1041.7 466.322 1041.56C503.525 1041.42 533.574 1011.16 533.438 973.953C533.302 936.75 503.033 906.701 465.83 906.837C428.627 906.973 398.578 937.242 398.714 974.445Z" fill="#2D46B9"/>
</g>
</svg>
