<svg width="132" height="41" viewBox="0 0 132 41" fill="none" xmlns="http://www.w3.org/2000/svg">
<path fill-rule="evenodd" clip-rule="evenodd" d="M129.574 19.9173C129.292 19.9182 129.013 19.8632 128.752 19.7557C128.491 19.6481 128.255 19.4901 128.055 19.2906C127.856 19.0912 127.698 18.8544 127.591 18.5937C127.484 18.333 127.429 18.0537 127.43 17.7718C127.43 16.5943 128.379 15.6137 129.586 15.6137C129.868 15.6129 130.147 15.6678 130.408 15.7754C130.669 15.8829 130.905 16.041 131.105 16.2404C131.304 16.4398 131.462 16.6767 131.569 16.9374C131.676 17.198 131.731 17.4773 131.73 17.7592C131.73 18.3312 131.503 18.8798 131.098 19.2845C130.694 19.6892 130.146 19.9168 129.574 19.9173V19.9173ZM129.586 15.8274C129.331 15.8254 129.078 15.8745 128.842 15.9717C128.606 16.0688 128.391 16.2122 128.211 16.3933C128.031 16.5744 127.89 16.7896 127.794 17.0264C127.698 17.2631 127.651 17.5165 127.654 17.7718C127.654 18.8404 128.48 19.7015 129.574 19.7015C129.829 19.7032 130.082 19.654 130.317 19.5569C130.553 19.4598 130.767 19.3166 130.947 19.1358C131.127 18.9549 131.269 18.7401 131.365 18.5037C131.461 18.2674 131.509 18.0143 131.506 17.7592C131.509 17.5055 131.463 17.2536 131.368 17.0183C131.273 16.7829 131.132 16.569 130.953 16.389C130.774 16.209 130.561 16.0666 130.326 15.9701C130.092 15.8737 129.84 15.8252 129.586 15.8274V15.8274ZM130.06 17.9792L130.667 18.8299H130.156L129.611 18.0505H129.14V18.8299H128.713V16.5775H129.718C130.24 16.5775 130.584 16.8457 130.584 17.2962C130.584 17.665 130.37 17.8912 130.06 17.9792V17.9792ZM129.699 16.963H129.14V17.6754H129.699C129.978 17.6754 130.144 17.5392 130.144 17.3192C130.144 17.0888 129.976 16.963 129.699 16.963ZM102.872 9.58781C102.292 9.58753 101.736 9.8175 101.326 10.2271C100.916 10.6368 100.686 11.1925 100.686 11.7721C100.685 12.3517 100.915 12.9076 101.325 13.3177C101.735 13.7277 102.29 13.9582 102.87 13.9585C103.45 13.9585 104.006 13.7281 104.416 13.3181C104.826 12.9081 105.056 12.352 105.056 11.7721C105.056 11.1922 104.826 10.6361 104.416 10.2261C104.006 9.81606 103.45 9.58571 102.87 9.58571L102.872 9.58781ZM104.378 15.641H101.332C101.273 15.6415 101.216 15.6654 101.175 15.7074C101.133 15.7493 101.11 15.806 101.11 15.8651V29.1615C101.11 29.2872 101.208 29.3857 101.332 29.3857H104.381C104.44 29.3857 104.497 29.3621 104.539 29.32C104.581 29.278 104.605 29.221 104.605 29.1615V15.8651C104.605 15.8057 104.581 15.7487 104.539 15.7066C104.497 15.6646 104.44 15.641 104.381 15.641H104.378ZM111.154 15.6535V15.2345C111.154 13.9941 111.63 13.441 112.697 13.441C113.331 13.441 113.841 13.5667 114.415 13.7594C114.448 13.7708 114.484 13.774 114.519 13.7686C114.555 13.7633 114.588 13.7495 114.617 13.7286C114.645 13.7076 114.669 13.6801 114.685 13.6483C114.701 13.6164 114.709 13.5813 114.708 13.5457V10.979C114.708 10.9311 114.692 10.8844 114.664 10.846C114.635 10.8075 114.595 10.7792 114.549 10.7653C113.727 10.5144 112.872 10.3914 112.014 10.4008C109.2 10.4008 107.712 11.9869 107.712 14.9851V15.6305H106.247C106.188 15.6305 106.132 15.6538 106.09 15.6954C106.048 15.737 106.024 15.7935 106.023 15.8526V18.4863C106.023 18.6099 106.124 18.7105 106.247 18.7105H107.712V29.1657C107.712 29.2872 107.81 29.3878 107.934 29.3878H110.983C111.042 29.3873 111.098 29.3634 111.14 29.3214C111.181 29.2794 111.205 29.2227 111.205 29.1636V18.7084H114.05L118.41 29.1636C117.916 30.2594 117.43 30.4794 116.766 30.4794C116.227 30.4794 115.661 30.3181 115.083 30.0017C115.056 29.9874 115.027 29.9785 114.997 29.9756C114.967 29.9727 114.936 29.9759 114.907 29.985C114.878 29.9949 114.851 30.0109 114.828 30.0318C114.805 30.0527 114.787 30.0782 114.775 30.1065L113.742 32.3714C113.718 32.4226 113.714 32.481 113.732 32.5347C113.749 32.5884 113.787 32.6334 113.836 32.6606C114.915 33.2451 115.89 33.4945 117.092 33.4945C119.343 33.4945 120.587 32.4469 121.683 29.6246L126.971 15.9594C126.985 15.9256 126.99 15.8888 126.987 15.8525C126.983 15.8161 126.97 15.7812 126.95 15.751C126.929 15.7207 126.901 15.696 126.869 15.679C126.837 15.662 126.801 15.6532 126.764 15.6535H123.592C123.546 15.654 123.501 15.6688 123.463 15.6958C123.426 15.7228 123.397 15.7607 123.382 15.8044L120.13 25.0884L116.569 15.7981C116.553 15.7558 116.524 15.7192 116.487 15.6934C116.45 15.6676 116.406 15.6537 116.361 15.6535H111.154V15.6535ZM99.4693 15.641H96.1169V12.211C96.1169 12.1817 96.1111 12.1527 96.0998 12.1256C96.0886 12.0985 96.072 12.0739 96.0512 12.0533C96.0303 12.0326 96.0056 12.0163 95.9784 12.0053C95.9512 11.9942 95.9221 11.9887 95.8928 11.989H92.8442C92.7855 11.9895 92.7293 12.0131 92.6877 12.0546C92.6462 12.0961 92.6226 12.1523 92.6221 12.211V15.641H91.1554C91.1261 15.641 91.097 15.6468 91.0699 15.6581C91.0429 15.6693 91.0183 15.6859 90.9976 15.7067C90.977 15.7276 90.9607 15.7523 90.9496 15.7795C90.9386 15.8067 90.9331 15.8358 90.9333 15.8651V18.4842C90.9333 18.6078 91.0339 18.7084 91.1554 18.7084H92.6221V25.4844C92.6221 28.225 93.984 29.612 96.6743 29.612C97.768 29.612 98.6731 29.3878 99.528 28.9038C99.5625 28.8844 99.5912 28.8561 99.6111 28.8218C99.631 28.7875 99.6414 28.7486 99.6411 28.709V26.2156C99.6417 26.1774 99.6323 26.1396 99.614 26.1061C99.5957 26.0725 99.569 26.0442 99.5366 26.024C99.5041 26.0038 99.467 25.9923 99.4288 25.9906C99.3906 25.9889 99.3526 25.9972 99.3185 26.0145C98.7318 26.3099 98.164 26.4461 97.5291 26.4461C96.5507 26.4461 96.1149 26.004 96.1149 25.0088V18.7084H99.4672C99.4968 18.7087 99.526 18.7031 99.5534 18.6919C99.5807 18.6807 99.6055 18.6642 99.6264 18.6433C99.6473 18.6225 99.6638 18.5976 99.6749 18.5703C99.6861 18.543 99.6917 18.5137 99.6914 18.4842V15.8651C99.6917 15.8358 99.6862 15.8067 99.6751 15.7795C99.6641 15.7523 99.6478 15.7276 99.6271 15.7067C99.6065 15.6859 99.5819 15.6693 99.5548 15.6581C99.5277 15.6468 99.4987 15.641 99.4693 15.641V15.641ZM83.3968 15.3623C79.2901 15.3623 76.0697 18.5261 76.0697 22.5636C76.0697 26.5592 79.267 29.6874 83.3465 29.6874C87.4678 29.6874 90.6966 26.5362 90.6966 22.5133C90.6966 18.503 87.4909 15.3623 83.3968 15.3623ZM83.3968 26.597C81.2114 26.597 79.5625 24.8411 79.5625 22.5112C79.5625 20.175 81.1548 18.48 83.3465 18.48C85.5465 18.48 87.2017 20.2358 87.2017 22.5657C87.2017 24.9019 85.603 26.597 83.3968 26.597ZM68.7008 15.3623C66.9827 15.3623 65.5747 16.039 64.4139 17.424V15.8651C64.4139 15.806 64.3906 15.7493 64.349 15.7074C64.3074 15.6654 64.2509 15.6415 64.1918 15.641H61.1432C61.0841 15.6415 61.0276 15.6654 60.9861 15.7074C60.9445 15.7493 60.9211 15.806 60.9211 15.8651V33.1928C60.9211 33.3143 61.0217 33.4149 61.1432 33.4149H64.1918C64.2505 33.4143 64.3067 33.3907 64.3482 33.3492C64.3898 33.3077 64.4133 33.2515 64.4139 33.1928V27.7242C65.5768 29.0253 66.9848 29.6623 68.7008 29.6623C71.8897 29.6623 75.1185 27.2067 75.1185 22.5133C75.1185 17.82 71.8918 15.3623 68.7008 15.3623ZM71.5754 22.5133C71.5754 24.9019 70.1025 26.5718 67.9947 26.5718C65.9099 26.5718 64.3385 24.8265 64.3385 22.5133C64.3385 20.2002 65.9099 18.4549 67.9947 18.4549C70.0689 18.4549 71.5775 20.1604 71.5775 22.5133H71.5754ZM53.9 18.721C50.4973 17.908 49.8918 17.3381 49.8918 16.1417C49.8918 15.0103 50.9562 14.2497 52.5402 14.2497C54.0739 14.2497 55.5971 14.8259 57.1916 16.016C57.2154 16.0336 57.2424 16.0462 57.2711 16.0533C57.2998 16.0604 57.3296 16.0617 57.3588 16.0573C57.388 16.0528 57.416 16.0426 57.4413 16.0272C57.4665 16.0119 57.4885 15.9917 57.5059 15.9678L59.1695 13.6232C59.2018 13.5769 59.2154 13.5201 59.2077 13.4642C59.1999 13.4082 59.1713 13.3573 59.1276 13.3215C57.2293 11.7962 55.0901 11.0566 52.5905 11.0566C48.9133 11.0566 46.3467 13.2608 46.3467 16.4183C46.3467 19.8021 48.5613 21.0006 52.3893 21.9246C55.6453 22.6747 56.1964 23.3032 56.1964 24.4284C56.1964 25.673 55.0859 26.4461 53.2945 26.4461C51.3082 26.4461 49.6886 25.7756 47.8741 24.2084C47.8287 24.1698 47.7701 24.1503 47.7107 24.1539C47.6811 24.1562 47.6523 24.1644 47.626 24.1781C47.5998 24.1918 47.5765 24.2106 47.5577 24.2335L45.6929 26.4503C45.6549 26.4945 45.636 26.552 45.6403 26.6101C45.6446 26.6682 45.6718 26.7223 45.716 26.7604C47.7705 28.6218 50.4467 29.6479 53.219 29.6371C57.179 29.6371 59.7394 27.4728 59.7394 24.1246C59.7394 21.2939 58.0486 19.7288 53.9 18.7189V18.721ZM19.9194 0.639046C14.6904 0.639046 9.67546 2.71628 5.97796 6.41378C2.28045 10.1113 0.203217 15.1262 0.203217 20.3552C0.203217 25.5843 2.28045 30.5992 5.97796 34.2967C9.67546 37.9942 14.6904 40.0714 19.9194 40.0714C25.1485 40.0714 30.1634 37.9942 33.8609 34.2967C37.5584 30.5992 39.6356 25.5843 39.6356 20.3552C39.6356 15.1262 37.5584 10.1113 33.8609 6.41378C30.1634 2.71628 25.1485 0.639046 19.9194 0.639046V0.639046ZM28.9625 29.0756C28.8785 29.2137 28.768 29.3338 28.6375 29.4291C28.507 29.5244 28.359 29.593 28.2019 29.631C28.0448 29.6689 27.8817 29.6755 27.7221 29.6503C27.5625 29.6251 27.4094 29.5687 27.2716 29.4842C22.6411 26.6556 16.8164 26.0166 9.95236 27.5838C9.79511 27.6197 9.63233 27.6243 9.47331 27.5973C9.31429 27.5703 9.16215 27.5122 9.02557 27.4264C8.88898 27.3406 8.77064 27.2288 8.67729 27.0972C8.58394 26.9657 8.51741 26.8171 8.4815 26.6598C8.4456 26.5026 8.44101 26.3398 8.46802 26.1808C8.49502 26.0217 8.55308 25.8696 8.63888 25.733C8.72468 25.5964 8.83654 25.4781 8.96808 25.3847C9.09962 25.2914 9.24825 25.2249 9.4055 25.189C16.9148 23.4709 23.3577 24.2105 28.5539 27.3869C29.1322 27.741 29.3145 28.4973 28.9625 29.0756ZM31.372 23.7076C31.1588 24.0545 30.8167 24.3027 30.4208 24.3977C30.0249 24.4928 29.6074 24.4269 29.26 24.2147C23.9611 20.9566 15.8819 20.0137 9.61293 21.9162C9.23151 22.0067 8.82995 21.9483 8.49008 21.753C8.15021 21.5576 7.89763 21.24 7.78381 20.8649C7.66999 20.4898 7.70351 20.0854 7.87753 19.7341C8.05155 19.3829 8.35297 19.1112 8.72036 18.9745C15.8819 16.8017 24.7825 17.8556 30.867 21.5935C31.0394 21.6991 31.1892 21.8376 31.3079 22.0011C31.4267 22.1647 31.5121 22.35 31.5592 22.5465C31.6063 22.7431 31.6141 22.947 31.5824 23.1465C31.5506 23.3461 31.4798 23.5375 31.3741 23.7097L31.372 23.7076ZM31.5836 18.1175C25.2266 14.344 14.7421 13.9962 8.67636 15.84C8.44358 15.9143 8.19837 15.9415 7.95497 15.9202C7.71157 15.8988 7.47484 15.8293 7.25854 15.7157C7.04223 15.6021 6.85067 15.4466 6.69498 15.2583C6.53929 15.07 6.42258 14.8526 6.35164 14.6188C6.28069 14.385 6.25692 14.1394 6.28171 13.8963C6.3065 13.6533 6.37935 13.4175 6.49604 13.2029C6.61272 12.9882 6.77091 12.7989 6.9614 12.6459C7.1519 12.4929 7.37091 12.3792 7.60569 12.3116C14.5682 10.1954 26.1465 10.6061 33.4609 14.9474C33.8816 15.1969 34.1859 15.6033 34.3069 16.0772C34.428 16.5511 34.3558 17.0536 34.1063 17.4743C33.8568 17.8949 33.4504 18.1993 32.9765 18.3203C32.5026 18.4413 32.0001 18.3691 31.5794 18.1196" fill="white"/>
</svg>
